<svg width="89" height="89" viewBox="0 0 89 89" fill="none" xmlns="http://www.w3.org/2000/svg">
<path d="M84.6503 4.35418C82.851 2.53839 80.6096 1.22268 78.1471 0.536662C75.6846 -0.149359 73.0858 -0.182024 70.6068 0.441884C51.3886 5.48725 33.788 15.3831 19.4912 29.1815C16.6787 32.0109 14.4856 35.3944 13.0511 39.1169C11.6166 42.8395 10.9721 46.8197 11.1585 50.8048C11.4242 56.5895 13.4546 62.1542 16.9769 66.7506L1.0867 82.6705C0.732517 83.0126 0.450008 83.4218 0.255658 83.8742C0.0613075 84.3266 -0.0409914 84.8132 -0.0452701 85.3056C-0.0495489 85.798 0.0442783 86.2863 0.230737 86.7421C0.417195 87.1978 0.69255 87.6118 1.04074 87.96C1.38892 88.3082 1.80296 88.5836 2.2587 88.77C2.71444 88.9565 3.20276 89.0503 3.69515 89.046C4.18754 89.0418 4.67414 88.9395 5.12657 88.7451C5.57901 88.5508 5.9882 88.2682 6.33028 87.9141L22.2168 72.0276C27.0862 75.8295 33.0899 77.8886 39.2677 77.8756C43.3557 77.8164 47.392 76.9525 51.1461 75.3331C54.9002 73.7138 58.2984 71.3708 61.1469 68.4379C77.4635 52.1212 86.6713 25.9923 88.5663 18.2827C89.1823 15.821 89.1451 13.2412 88.4583 10.7983C87.7715 8.35543 86.4589 6.13417 84.6503 4.35418ZM18.5678 50.4636C18.4282 47.5071 18.905 44.5538 19.968 41.7915C21.0309 39.0291 22.6567 36.518 24.7422 34.4176C26.3293 32.8416 27.9795 31.362 29.6668 29.9157V54.0904L22.2872 61.4699C20.0385 58.2232 18.7495 54.4089 18.5678 50.4636ZM55.792 63.2907C52.2602 67.1292 47.4747 69.5817 42.2962 70.2071C37.1178 70.8325 31.886 69.5898 27.542 66.7024L35.9932 58.2511L46.0354 48.2089H67.4028C64.0439 53.6099 60.1544 58.6622 55.792 63.2907ZM81.3795 16.4916C79.1443 24.9467 75.9075 33.1046 71.7379 40.7923H53.4521L65.6636 28.5807C66.0178 28.2386 66.3003 27.8294 66.4947 27.377C66.689 26.9246 66.7913 26.438 66.7956 25.9456C66.7999 25.4532 66.706 24.9649 66.5196 24.5091C66.3331 24.0534 66.0578 23.6394 65.7096 23.2912C65.3614 22.943 64.9473 22.6676 64.4916 22.4812C64.0359 22.2947 63.5476 22.2009 63.0552 22.2052C62.5628 22.2094 62.0762 22.3117 61.6237 22.5061C61.1713 22.7004 60.7621 22.983 60.42 23.3371L41.8784 41.8788L37.0835 46.6737V24.1493C47.8043 16.6358 59.7537 11.0501 72.3942 7.64347C72.9812 7.49573 73.5839 7.41977 74.1891 7.41726C75.1609 7.41934 76.1228 7.61337 77.0195 7.9882C77.9161 8.36302 78.7299 8.91127 79.4141 9.60147C80.3173 10.4764 80.9733 11.5743 81.3158 12.7842C81.6584 13.9941 81.6752 15.273 81.3647 16.4916H81.3795Z" fill="#3E5418"/>
</svg>
